<?xml version="1.0" encoding="UTF-8"?>
<svg id="_レイヤー_2" data-name="レイヤー 2" xmlns="http://www.w3.org/2000/svg" viewBox="0 0 2000 92.21">
  <defs>
    <style>
      .cls-1 {
        opacity: .51;
      }

      .cls-1, .cls-2 {
        isolation: isolate;
      }

      .cls-2 {
        opacity: .75;
      }
    </style>
  </defs>
  <g id="_レイヤー_1-2" data-name="レイヤー 1">
    <path class="cls-2" d="M0,92.21v-27c14,2,29-3,42-11,21-12,40-29,63-34,24-4,48,7,71,16,21,9,42,17,64,19,47,5,94-17,140-33s98-25,139,3c13,9,25,21,39,19,10,0,18-7,26-12,34-21,75-27,112-15,12,4,25,11,31,25,8,17,28,26,45,22s30-15,46-23c51-29,111-24,167-18l15,2,15-2c56-6,116-11,168,18,15,8,29,19,45,23s37-5,45-22c6-14,19-21,31-25,37-12,78-6,112,15,8,5,16,12,26,13,14,1,26-11,39-20,41-28,93-19,139-3s93,38,140,33c22-2,43-10,64-19,23-9,47-20,71-16,23,5,42,22,63,34,13,8,28,13,42,11v27H0Z"/>
    <circle class="cls-1" cx="1940.71" cy="18.67" r="17.1" transform="translate(1165.22 1797.81) rotate(-67)"/>
    <circle cx="1710.8" cy="61.81" r="13.4"/>
    <circle class="cls-1" cx="1741.9" cy="29.11" r="5.9"/>
    <circle class="cls-1" cx="1060.7" cy="28.01" r="18.6"/>
    <circle cx="1320.5" cy="57.31" r="13.4"/>
    <circle class="cls-1" cx="1109" cy="9.41" r="8.9"/>
    <circle class="cls-1" cx="1625.54" cy="8.9" r="8.9" transform="translate(469.82 1152.03) rotate(-45)"/>
    <circle class="cls-1" cx="1887.5" cy="7.11" r="6.1"/>
    <circle class="cls-1" cx="59.23" cy="18.98" r="17.1"/>
    <circle cx="289.21" cy="62.53" r="13.4" transform="translate(-2.01 10.13) rotate(-2)"/>
    <circle class="cls-1" cx="258.1" cy="29.11" r="5.9"/>
    <circle class="cls-1" cx="939.3" cy="28.01" r="18.6"/>
    <circle cx="679.5" cy="57.31" r="13.4"/>
    <circle class="cls-1" cx="891" cy="9.41" r="8.9"/>
    <circle class="cls-1" cx="374.54" cy="8.9" r="8.9"/>
    <circle class="cls-1" cx="112.5" cy="7.11" r="6.1"/>
  </g>
</svg>