<?xml version="1.0" encoding="UTF-8"?>
<svg id="_レイヤー_2" data-name="レイヤー 2" xmlns="http://www.w3.org/2000/svg" viewBox="0 0 34.86 39.29">
  <defs>
    <style>
      .cls-1 {
        fill: #c9caca;
      }

      .cls-2 {
        fill: #232323;
      }

      .cls-3 {
        fill: #d72853;
      }
    </style>
  </defs>
  <g id="_名刺2" data-name="名刺2">
    <g>
      <g>
        <rect class="cls-2" x="33.82" y="31.3" width="1.04" height="1.85"/>
        <rect class="cls-2" x="33.82" y="35.01" width="1.04" height="2.12"/>
      </g>
      <g>
        <path class="cls-3" d="M3.65,29.35v1.95h-.99v7.79H.99v-7.79H0v-1.95H3.65Z"/>
        <path class="cls-3" d="M6.92,29.35l.95,9.74h-1.71l-.09-1.75h-.6l-.1,1.75h-1.73l.85-9.74h2.41Zm-.88,6.27c-.08-1.1-.17-2.47-.25-4.09-.17,1.87-.28,3.23-.32,4.09h.57Z"/>
        <path class="cls-3" d="M11.88,29.35v9.74h-1.46l-.87-4.43v4.43h-1.4v-9.74h1.4l.94,4.39v-4.39h1.4Z"/>
        <path class="cls-3" d="M16.37,35.05c0,.98-.02,1.67-.05,2.08-.03,.41-.13,.78-.29,1.12-.16,.34-.38,.6-.65,.78-.27,.18-.59,.27-.95,.27s-.65-.09-.93-.26c-.27-.17-.49-.43-.66-.77-.17-.34-.27-.71-.3-1.11-.03-.4-.05-1.1-.05-2.11v-1.67c0-.98,.02-1.67,.05-2.08s.13-.78,.29-1.12c.16-.34,.38-.6,.65-.78,.27-.18,.59-.27,.95-.27s.65,.09,.93,.26c.27,.17,.49,.43,.66,.77,.17,.34,.27,.71,.3,1.11s.05,1.1,.05,2.11v1.67Zm-1.67-3.2c0-.45-.02-.74-.05-.87-.03-.13-.1-.19-.2-.19-.09,0-.15,.05-.2,.15-.05,.1-.07,.4-.07,.91v4.55c0,.57,.02,.92,.05,1.05s.1,.2,.21,.2,.19-.08,.22-.23c.03-.15,.05-.52,.05-1.09v-4.48Z"/>
        <path class="cls-2" d="M20.89,33.59h-1.67v-1.69c0-.49-.02-.8-.05-.92s-.11-.18-.24-.18c-.14,0-.23,.07-.26,.22-.04,.15-.06,.47-.06,.96v4.53c0,.47,.02,.78,.06,.93,.04,.14,.12,.22,.25,.22s.21-.07,.24-.22c.04-.15,.06-.48,.06-1.02v-1.23h1.67v.38c0,1.01-.05,1.72-.14,2.15s-.3,.79-.62,1.11-.72,.48-1.19,.48-.89-.13-1.21-.4c-.32-.27-.53-.64-.63-1.12-.1-.48-.15-1.19-.15-2.15v-2.85c0-.7,.02-1.23,.05-1.58s.13-.69,.28-1.01c.16-.33,.38-.58,.65-.77s.6-.28,.96-.28c.49,0,.9,.14,1.22,.43,.32,.29,.53,.65,.63,1.08s.15,1.1,.15,2.01v.93Z"/>
        <path class="cls-2" d="M25.3,35.05c0,.98-.02,1.67-.05,2.08-.03,.41-.13,.78-.29,1.12-.16,.34-.38,.6-.65,.78-.27,.18-.59,.27-.95,.27s-.65-.09-.93-.26c-.27-.17-.49-.43-.66-.77-.17-.34-.27-.71-.3-1.11-.03-.4-.05-1.1-.05-2.11v-1.67c0-.98,.02-1.67,.05-2.08s.13-.78,.29-1.12c.16-.34,.38-.6,.65-.78,.27-.18,.59-.27,.95-.27s.65,.09,.93,.26c.27,.17,.49,.43,.66,.77,.17,.34,.27,.71,.3,1.11s.05,1.1,.05,2.11v1.67Zm-1.67-3.2c0-.45-.02-.74-.05-.87-.03-.13-.1-.19-.2-.19-.09,0-.15,.05-.2,.15-.05,.1-.07,.4-.07,.91v4.55c0,.57,.02,.92,.05,1.05s.1,.2,.21,.2,.19-.08,.22-.23c.03-.15,.05-.52,.05-1.09v-4.48Z"/>
        <path class="cls-2" d="M25.92,29.35h1.25c.81,0,1.35,.06,1.64,.17s.5,.3,.65,.55c.15,.26,.24,.54,.28,.86s.06,.93,.06,1.86v3.41c0,.88-.03,1.46-.08,1.75s-.15,.53-.28,.69c-.13,.17-.3,.28-.5,.35-.2,.07-.5,.1-.9,.1h-2.11v-9.74Zm1.67,1.67v6.41c.24,0,.39-.07,.44-.22s.08-.54,.08-1.19v-3.79c0-.44,0-.72-.03-.85-.02-.12-.06-.22-.13-.27-.07-.06-.19-.09-.37-.09Z"/>
        <path class="cls-2" d="M30.41,29.35h2.78v1.95h-1.11v1.85h1.04v1.85h-1.04v2.14h1.23v1.95h-2.9v-9.74Z"/>
      </g>
      <g>
        <path class="cls-1" d="M26.8,16.99h-7.42v-3.07c0-.89-.08-1.45-.24-1.67-.16-.22-.51-.33-1.05-.33-.61,0-1,.13-1.16,.4-.17,.27-.25,.85-.25,1.75v8.21c0,.86,.08,1.42,.25,1.68,.16,.26,.53,.39,1.11,.39s.91-.13,1.08-.39,.26-.88,.26-1.85v-2.22h7.42v.69c0,1.83-.21,3.13-.63,3.89-.42,.77-1.34,1.44-2.77,2.01-1.43,.58-3.19,.86-5.28,.86s-3.97-.24-5.38-.73c-1.41-.49-2.35-1.16-2.8-2.03s-.69-2.16-.69-3.89v-5.17c0-1.27,.07-2.23,.21-2.87s.56-1.25,1.26-1.84,1.67-1.05,2.91-1.39c1.24-.34,2.67-.51,4.28-.51,2.19,0,3.99,.26,5.41,.79,1.42,.52,2.36,1.18,2.8,1.96s.67,2,.67,3.65v1.68Z"/>
        <path class="cls-2" d="M6.14,15.47l-1.12-1.93,3.75-2.16L4.3,3.64,10.62,0l4.46,7.73,3.73-2.16,1.12,1.93L6.14,15.47Z"/>
      </g>
    </g>
  </g>
</svg>