<?xml version="1.0" encoding="UTF-8"?>
<svg id="_レイヤー_1" data-name="レイヤー 1" xmlns="http://www.w3.org/2000/svg" viewBox="0 0 878.42 856.52">
  <defs>
    <style>
      .cls-1, .cls-2, .cls-3 {
        stroke-width: 100px;
      }

      .cls-1, .cls-2, .cls-3, .cls-4, .cls-5, .cls-6, .cls-7, .cls-8, .cls-9 {
        stroke-miterlimit: 10;
      }

      .cls-1, .cls-2, .cls-3, .cls-4, .cls-5, .cls-6, .cls-7, .cls-9 {
        fill: none;
      }

      .cls-1, .cls-5 {
        stroke: #000;
      }

      .cls-2, .cls-6, .cls-9 {
        stroke: #e4007f;
      }

      .cls-3, .cls-4, .cls-7, .cls-8 {
        stroke: #9e9e9e;
      }

      .cls-10, .cls-8 {
        fill: #e4007f;
      }

      .cls-4, .cls-6 {
        stroke-width: 25px;
      }

      .cls-5, .cls-7, .cls-9 {
        stroke-width: 50px;
      }
    </style>
  </defs>
  <g>
    <line class="cls-3" x1="10.6" y1="131.26" x2="877.99" y2="131.26"/>
    <line class="cls-7" x1="113.24" y1="14.84" x2="113.24" y2="856.52"/>
    <rect class="cls-8" x="228.64" y="423.35" width="259.06" height="64.34"/>
    <line class="cls-7" x1="191.39" y1="251.55" x2="877.99" y2="251.55"/>
    <line class="cls-4" x1="150.77" y1="181.31" x2="150.77" y2="856.52"/>
    <line class="cls-4" x1="150.77" y1="14.84" x2="150.77" y2="81.22"/>
    <line class="cls-7" x1="191.39" y1="325.46" x2="877.99" y2="325.46"/>
    <line class="cls-3" x1="163.33" y1="131.26" x2="212.64" y2="131.26"/>
    <line class="cls-7" x1="498.77" y1="405.04" x2="498.77" y2="500.36"/>
    <line class="cls-7" x1="191.05" y1="498.49" x2="523.64" y2="498.49"/>
    <line class="cls-7" x1="216.13" y1="402.7" x2="216.13" y2="514.6"/>
    <line class="cls-7" x1="191.07" y1="410.65" x2="877.99" y2="410.65"/>
    <line class="cls-7" x1="853.16" y1="397.88" x2="853.16" y2="523.52"/>
    <line class="cls-7" x1="633.81" y1="498.49" x2="841.04" y2="498.49"/>
    <line class="cls-7" x1="191.39" y1="576.2" x2="877.99" y2="576.2"/>
    <line class="cls-7" x1="191.39" y1="719.6" x2="877.99" y2="719.6"/>
    <line class="cls-7" x1="191.39" y1="826.94" x2="877.99" y2="826.94"/>
    <line class="cls-7" x1="194.87" y1="826.58" x2="874.54" y2="719.87"/>
    <line class="cls-7" x1="854.85" y1="647.9" x2="191.39" y2="647.9"/>
    <line class="cls-7" x1="853.39" y1="573.09" x2="853.39" y2="673.01"/>
  </g>
  <g>
    <line class="cls-1" y1="116.43" x2="867.39" y2="116.43"/>
    <line class="cls-5" x1="102.64" x2="102.64" y2="841.68"/>
    <rect class="cls-10" x="218.04" y="408.51" width="259.06" height="64.34"/>
    <line class="cls-5" x1="180.79" y1="236.71" x2="867.39" y2="236.71"/>
    <line class="cls-6" x1="140.17" y1="166.47" x2="140.17" y2="841.68"/>
    <line class="cls-6" x1="140.17" x2="140.17" y2="66.38"/>
    <line class="cls-9" x1="180.79" y1="310.62" x2="867.39" y2="310.62"/>
    <line class="cls-2" x1="152.73" y1="116.43" x2="202.04" y2="116.43"/>
    <line class="cls-5" x1="488.17" y1="390.2" x2="488.17" y2="485.52"/>
    <line class="cls-5" x1="180.45" y1="483.65" x2="513.04" y2="483.65"/>
    <line class="cls-5" x1="205.53" y1="387.86" x2="205.53" y2="499.76"/>
    <line class="cls-5" x1="180.47" y1="395.81" x2="867.39" y2="395.81"/>
    <line class="cls-5" x1="842.55" y1="383.04" x2="842.55" y2="508.68"/>
    <line class="cls-5" x1="623.21" y1="483.65" x2="830.44" y2="483.65"/>
    <line class="cls-5" x1="180.79" y1="561.36" x2="867.39" y2="561.36"/>
    <line class="cls-5" x1="180.79" y1="704.77" x2="867.39" y2="704.77"/>
    <line class="cls-5" x1="180.79" y1="812.1" x2="867.39" y2="812.1"/>
    <line class="cls-5" x1="184.27" y1="811.74" x2="863.94" y2="705.03"/>
    <line class="cls-5" x1="844.25" y1="633.06" x2="180.79" y2="633.06"/>
    <line class="cls-5" x1="842.79" y1="558.25" x2="842.79" y2="658.17"/>
  </g>
</svg>