<?xml version="1.0" encoding="UTF-8"?>
<svg id="_レイヤー_2" data-name="レイヤー 2" xmlns="http://www.w3.org/2000/svg" viewBox="0 0 22.49 27.35">
  <defs>
    <style>
      .cls-1 {
        fill: #c9caca;
      }

      .cls-2 {
        fill: #232323;
      }
    </style>
  </defs>
  <g id="_名刺2" data-name="名刺2">
    <g>
      <path class="cls-1" d="M22.49,16.99h-7.42v-3.07c0-.89-.08-1.45-.24-1.67-.16-.22-.51-.33-1.05-.33-.61,0-1,.13-1.16,.4-.17,.27-.25,.85-.25,1.75v8.21c0,.86,.08,1.42,.25,1.68,.16,.26,.53,.39,1.11,.39s.91-.13,1.08-.39,.26-.88,.26-1.85v-2.22h7.42v.69c0,1.83-.21,3.13-.63,3.89-.42,.77-1.34,1.44-2.77,2.01-1.43,.58-3.19,.86-5.28,.86s-3.97-.24-5.38-.73c-1.41-.49-2.35-1.16-2.8-2.03s-.69-2.16-.69-3.89v-5.17c0-1.27,.07-2.23,.21-2.87s.56-1.25,1.26-1.84,1.67-1.05,2.91-1.39c1.24-.34,2.67-.51,4.28-.51,2.19,0,3.99,.26,5.41,.79,1.42,.52,2.36,1.18,2.8,1.96s.67,2,.67,3.65v1.68Z"/>
      <path class="cls-2" d="M1.83,15.47l-1.12-1.93,3.75-2.16L0,3.64,6.31,0l4.46,7.73,3.73-2.16,1.12,1.93L1.83,15.47Z"/>
    </g>
  </g>
</svg>